<svg width="592" height="113" viewBox="0 0 592 113" fill="none" xmlns="http://www.w3.org/2000/svg">
<path d="M80.55 39.6C80.55 45.7 79.15 51.3 76.35 56.4C73.55 61.4 69.25 65.45 63.45 68.55C57.65 71.65 50.45 73.2 41.85 73.2H25.95V111H0.3V5.7H41.85C50.25 5.7 57.35 7.15 63.15 10.05C68.95 12.95 73.3 16.95 76.2 22.05C79.1 27.15 80.55 33 80.55 39.6ZM39.9 52.8C44.8 52.8 48.45 51.65 50.85 49.35C53.25 47.05 54.45 43.8 54.45 39.6C54.45 35.4 53.25 32.15 50.85 29.85C48.45 27.55 44.8 26.4 39.9 26.4H25.95V52.8H39.9ZM132.004 112.2C123.804 112.2 116.404 110.45 109.804 106.95C103.304 103.45 98.1535 98.45 94.3535 91.95C90.6535 85.45 88.8035 77.85 88.8035 69.15C88.8035 60.55 90.7035 53 94.5035 46.5C98.3035 39.9 103.504 34.85 110.104 31.35C116.704 27.85 124.104 26.1 132.304 26.1C140.504 26.1 147.904 27.85 154.504 31.35C161.104 34.85 166.304 39.9 170.104 46.5C173.904 53 175.804 60.55 175.804 69.15C175.804 77.75 173.854 85.35 169.954 91.95C166.154 98.45 160.904 103.45 154.204 106.95C147.604 110.45 140.204 112.2 132.004 112.2ZM132.004 90C136.904 90 141.054 88.2 144.454 84.6C147.954 81 149.704 75.85 149.704 69.15C149.704 62.45 148.004 57.3 144.604 53.7C141.304 50.1 137.204 48.3 132.304 48.3C127.304 48.3 123.154 50.1 119.854 53.7C116.554 57.2 114.904 62.35 114.904 69.15C114.904 75.85 116.504 81 119.704 84.6C123.004 88.2 127.104 90 132.004 90ZM184.311 69C184.311 60.4 185.911 52.85 189.111 46.35C192.411 39.85 196.861 34.85 202.461 31.35C208.061 27.85 214.311 26.1 221.211 26.1C226.711 26.1 231.711 27.25 236.211 29.55C240.811 31.85 244.411 34.95 247.011 38.85V-1.43051e-06H272.661V111H247.011V99C244.611 103 241.161 106.2 236.661 108.6C232.261 111 227.111 112.2 221.211 112.2C214.311 112.2 208.061 110.45 202.461 106.95C196.861 103.35 192.411 98.3 189.111 91.8C185.911 85.2 184.311 77.6 184.311 69ZM247.011 69.15C247.011 62.75 245.211 57.7 241.611 54C238.111 50.3 233.811 48.45 228.711 48.45C223.611 48.45 219.261 50.3 215.661 54C212.161 57.6 210.411 62.6 210.411 69C210.411 75.4 212.161 80.5 215.661 84.3C219.261 88 223.611 89.85 228.711 89.85C233.811 89.85 238.111 88 241.611 84.3C245.211 80.6 247.011 75.55 247.011 69.15ZM286.118 69.15C286.118 60.45 287.868 52.85 291.368 46.35C294.968 39.85 299.918 34.85 306.218 31.35C312.618 27.85 319.918 26.1 328.118 26.1C338.618 26.1 347.368 28.85 354.368 34.35C361.468 39.85 366.118 47.6 368.318 57.6H341.018C338.718 51.2 334.268 48 327.668 48C322.968 48 319.218 49.85 316.418 53.55C313.618 57.15 312.218 62.35 312.218 69.15C312.218 75.95 313.618 81.2 316.418 84.9C319.218 88.5 322.968 90.3 327.668 90.3C334.268 90.3 338.718 87.1 341.018 80.7H368.318C366.118 90.5 361.468 98.2 354.368 103.8C347.268 109.4 338.518 112.2 328.118 112.2C319.918 112.2 312.618 110.45 306.218 106.95C299.918 103.45 294.968 98.45 291.368 91.95C287.868 85.45 286.118 77.85 286.118 69.15ZM376.938 69C376.938 60.4 378.538 52.85 381.738 46.35C385.038 39.85 389.488 34.85 395.088 31.35C400.688 27.85 406.938 26.1 413.838 26.1C419.738 26.1 424.888 27.3 429.288 29.7C433.788 32.1 437.238 35.25 439.638 39.15V27.3H465.288V111H439.638V99.15C437.138 103.05 433.638 106.2 429.138 108.6C424.738 111 419.588 112.2 413.688 112.2C406.888 112.2 400.688 110.45 395.088 106.95C389.488 103.35 385.038 98.3 381.738 91.8C378.538 85.2 376.938 77.6 376.938 69ZM439.638 69.15C439.638 62.75 437.838 57.7 434.238 54C430.738 50.3 426.438 48.45 421.338 48.45C416.238 48.45 411.888 50.3 408.288 54C404.788 57.6 403.038 62.6 403.038 69C403.038 75.4 404.788 80.5 408.288 84.3C411.888 88 416.238 89.85 421.338 89.85C426.438 89.85 430.738 88 434.238 84.3C437.838 80.6 439.638 75.55 439.638 69.15ZM517.895 112.2C510.595 112.2 504.095 110.95 498.395 108.45C492.695 105.95 488.195 102.55 484.895 98.25C481.595 93.85 479.745 88.95 479.345 83.55H504.695C504.995 86.45 506.345 88.8 508.745 90.6C511.145 92.4 514.095 93.3 517.595 93.3C520.795 93.3 523.245 92.7 524.945 91.5C526.745 90.2 527.645 88.55 527.645 86.55C527.645 84.15 526.395 82.4 523.895 81.3C521.395 80.1 517.345 78.8 511.745 77.4C505.745 76 500.745 74.55 496.745 73.05C492.745 71.45 489.295 69 486.395 65.7C483.495 62.3 482.045 57.75 482.045 52.05C482.045 47.25 483.345 42.9 485.945 39C488.645 35 492.545 31.85 497.645 29.55C502.845 27.25 508.995 26.1 516.095 26.1C526.595 26.1 534.845 28.7 540.845 33.9C546.945 39.1 550.445 46 551.345 54.6H527.645C527.245 51.7 525.945 49.4 523.745 47.7C521.645 46 518.845 45.15 515.345 45.15C512.345 45.15 510.045 45.75 508.445 46.95C506.845 48.05 506.045 49.6 506.045 51.6C506.045 54 507.295 55.8 509.795 57C512.395 58.2 516.395 59.4 521.795 60.6C527.995 62.2 533.045 63.8 536.945 65.4C540.845 66.9 544.245 69.4 547.145 72.9C550.145 76.3 551.695 80.9 551.795 86.7C551.795 91.6 550.395 96 547.595 99.9C544.895 103.7 540.945 106.7 535.745 108.9C530.645 111.1 524.695 112.2 517.895 112.2ZM614.138 89.25V111H601.088C591.788 111 584.538 108.75 579.338 104.25C574.138 99.65 571.538 92.2 571.538 81.9V48.6H561.338V27.3H571.538V6.9H597.188V27.3H613.988V48.6H597.188V82.2C597.188 84.7 597.788 86.5 598.988 87.6C600.188 88.7 602.188 89.25 604.988 89.25H614.138Z" fill="#EEEEEE"/>
</svg>
